# xmcd
#
# Track frame offsets: 
#        150
#        7097
#        12575
#        27002
#        61560
#        68487
#        78727
#        88540
#        97975
#        112940
#        116015
#        122915
#        133927
#        188097
#        208070
#        248340
#        284830
#
# Disc length: 4328 seconds
#
# Revision: 0
# Processed by: cddbd v1.5.2PL0 Copyright (c) Steve Scherf et al.
# Submitted via: ExactAudioCopy v0.95b3
#
DISCID=e510e611
DTITLE=Genesis  - Genesis In The Beginning - Vol.6 - Definitive Editio
DTITLE=n Digital Remastered and Bonus Tracks  FLAC
DYEAR=1900
DGENRE=
TTITLE0=Here Comes The Supernatural Anaesthetist-Take 1
TTITLE1=STUDIO IMPROVISATION-THE COLONY OF SLIPPERMAN fast Material1.2
TTITLE2=In The Rapids
TTITLE3=It1 - 2
TTITLE4=The Light Dies Down On Broadway
TTITLE5=Here Comes The Supernatural Anaesthetist-Take 2
TTITLE6=Here Comes The Supernatural Anaesthetist-Take 3
TTITLE7=Here Comes The Supernatural Anaesthetist-Take 4
TTITLE8=IN THE CAGE-instrumental part
TTITLE9=The Colony Of Slipperman-Take 1
TTITLE10=The Colony Of Slipperman-Take 2
TTITLE11=The Colony Of Slipperman-Take 3
TTITLE12=Fly On A Windshield
TTITLE13=Going Out To Get You-Live,Unreleased Song
TTITLE14=Stagnation
TTITLE15=Twilight Alehouse
TTITLE16=Get'em Out By Friday
EXTD=
EXTT0=
EXTT1=
EXTT2=
EXTT3=
EXTT4=
EXTT5=
EXTT6=
EXTT7=
EXTT8=
EXTT9=
EXTT10=
EXTT11=
EXTT12=
EXTT13=
EXTT14=
EXTT15=
EXTT16=
PLAYORDER=
